<?xml version="1.0" standalone="no"?><!DOCTYPE svg PUBLIC "-//W3C//DTD SVG 1.1//EN" "http://www.w3.org/Graphics/SVG/1.1/DTD/svg11.dtd"><svg t="1643597021443" class="icon" viewBox="0 0 1024 1024" version="1.1" xmlns="http://www.w3.org/2000/svg" p-id="5507" xmlns:xlink="http://www.w3.org/1999/xlink" width="200" height="200"><defs><style type="text/css"></style></defs><path d="M523.14 958.82c-24.98 0.04-49.12-9.08-67.83-25.63l-42.2-37.47c-16.34-14.48-17.84-39.47-3.35-55.8 14.48-16.34 39.47-17.84 55.8-3.35l42.2 37.47c7.57 6.6 18.47 7.71 27.21 2.76 11.21-6.29 15.19-20.47 8.9-31.68a23.228 23.228 0 0 0-4.17-5.39l-86.76-84-169.18 97.8c-49.83 28.25-113.13 10.75-141.38-39.08-0.07-0.12-0.13-0.24-0.2-0.35L77.9 702.87c-28.25-49.83-10.75-113.13 39.08-141.38 0.12-0.07 0.24-0.13 0.36-0.2l250.42-144.73c49.83-28.25 113.13-10.75 141.38 39.08 0.07 0.12 0.13 0.24 0.2 0.35l86.76 150.25 264.22 36.68L589 173.24l-57.58 157.75c-7.51 20.47-30.2 30.98-50.68 23.47-20.47-7.51-30.98-30.2-23.46-50.68l74.93-203.49c10.68-28.79 42.68-43.48 71.47-32.8 12.07 4.48 22.21 13 28.7 24.12l319.83 554.08c15.3 26.63 6.12 60.62-20.51 75.92a55.603 55.603 0 0 1-35.09 6.9l-315.49-43.38a71.398 71.398 0 0 1-52.06-35.1l-89.52-153.8c-6.87-11.86-22.04-15.92-33.91-9.07L155.2 631.89c-11.86 6.87-15.92 22.04-9.07 33.91l64.28 111.21c6.87 11.86 22.04 15.92 33.91 9.07l173.92-100.56c27.74-15.76 62.54-11.43 85.58 10.65l91.1 87.94c40.73 39.03 42.11 103.69 3.08 144.42A102.143 102.143 0 0 1 523.93 960l-0.79-1.18z" fill="#dbdbdb" p-id="5508"></path></svg>