<?xml version="1.0" standalone="no"?><!DOCTYPE svg PUBLIC "-//W3C//DTD SVG 1.1//EN" "http://www.w3.org/Graphics/SVG/1.1/DTD/svg11.dtd"><svg t="1648311924794" class="icon" viewBox="0 0 1024 1024" version="1.1" xmlns="http://www.w3.org/2000/svg" p-id="6534" xmlns:xlink="http://www.w3.org/1999/xlink" width="200" height="200"><defs><style type="text/css"></style></defs><path d="M964.354552 384.370181l-440.021665-312.027549c-7.4159-5.249561-17.248849-5.249561-24.665773 0l-440.021665 312.027549c-9.624195 6.832615-11.874445 20.165272-5.082762 29.748534 6.874571 9.66615 20.207227 11.791557 29.748534 5.082762L512 115.924219l427.688779 303.278281c3.749394 2.62478 8.04114 3.916193 12.332886 3.916193 6.66684 0 13.249769-3.125177 17.415648-8.999978C976.228997 404.536476 973.978746 391.202797 964.354552 384.370181z" p-id="6535" fill="#cdcdcd"></path><path d="M940.105265 464.408075c-11.791557 0-21.331841 9.541307-21.331841 21.331841l0 363.108948c0 35.331693-28.54001 64.080457-63.580061 64.080457L171.765015 912.929322c-35.082006 0-63.622016-28.748764-63.622016-64.080457L108.142999 485.74094c0-11.791557-9.541307-21.331841-21.332864-21.331841s-21.332864 9.541307-21.332864 21.331841l0 363.108948c0 58.871829 47.664579 106.745163 106.286722 106.745163l683.427324 0c58.580187 0 106.244766-47.873334 106.244766-106.745163L961.436082 485.74094C961.438129 473.949382 951.896822 464.408075 940.105265 464.408075z" p-id="6536" fill="#cdcdcd"></path><path d="M727.990263 870.473371c82.329077 0 149.32698-67.038836 149.32698-149.409868L877.317243 550.737256c0-11.791557-9.541307-21.332864-21.331841-21.332864s-21.331841 9.541307-21.331841 21.332864l0 170.325223c0 58.871829-47.831378 106.745163-106.662275 106.745163l-85.079724 0c-11.791557 0-20.582781 9.541307-20.582781 21.331841s10.249435 21.331841 22.040992 21.331841L727.990263 870.471324z" p-id="6537" fill="#cdcdcd"></path><path d="M553.882899 848.369957c0-11.780301-9.55154-21.331841-21.332864-21.331841-11.780301 0-21.331841 9.55154-21.331841 21.331841 0 11.791557 9.55154 21.331841 21.331841 21.331841C544.331359 869.701798 553.882899 860.161514 553.882899 848.369957z" p-id="6538" fill="#cdcdcd"></path></svg>